<svg width="43" height="43" viewBox="0 0 43 43" fill="none" xmlns="http://www.w3.org/2000/svg">
<path fill-rule="evenodd" clip-rule="evenodd" d="M23.2881 23.6063L29.1017 17.7929C29.8014 17.0932 30.9359 17.0932 31.6356 17.7929C32.3353 18.4926 32.3353 19.627 31.6356 20.3267L21.5 30.4619L11.3644 20.3267C10.6646 19.627 10.6646 18.4926 11.3644 17.7929C12.0641 17.0932 13.1986 17.0932 13.8983 17.7929L19.7048 23.5992V7.12214C19.7048 6.20671 20.5069 5.4646 21.4964 5.4646C22.486 5.4646 23.2881 6.20671 23.2881 7.12214V23.6063ZM10.75 34.0417H32.25C33.2395 34.0417 34.0417 34.8438 34.0417 35.8334C34.0417 36.8229 33.2395 37.625 32.25 37.625H10.75C9.76048 37.625 8.95833 36.8229 8.95833 35.8334C8.95833 34.8438 9.76048 34.0417 10.75 34.0417Z" fill="#FFFCFC"/>
</svg>
