<svg width="61" height="61" viewBox="0 0 61 61" fill="none" xmlns="http://www.w3.org/2000/svg">
<path d="M30.0476 59.0952C46.0902 59.0952 59.0952 46.0902 59.0952 30.0476C59.0952 14.0051 46.0902 1 30.0476 1C14.0051 1 1 14.0051 1 30.0476C1 46.0902 14.0051 59.0952 30.0476 59.0952Z" stroke="#FCFDFF" stroke-width="2" stroke-miterlimit="1" stroke-linecap="round" stroke-linejoin="round"/>
<path d="M43.7976 44.0189C42.0045 45.1712 40.0714 46.0354 37.998 46.6117C35.9242 47.1877 33.6638 47.4762 31.2162 47.4762C28.7684 47.4762 26.469 47.1017 24.3177 46.3538C22.1661 45.6052 20.2873 44.5017 18.6819 43.0426C17.0761 41.5833 15.8091 39.7838 14.8819 37.6435C13.9541 35.5033 13.4905 33.0343 13.4905 30.2352C13.4905 27.691 13.9425 25.3526 14.8467 23.2199C15.7507 21.0873 16.9785 19.2541 18.53 17.7201C20.0811 16.1861 21.8858 14.9925 23.9436 14.1394C26.0016 13.2862 28.1918 12.8598 30.5147 12.8598C31.8709 12.8598 33.1923 12.9911 34.4785 13.2528C35.7648 13.5148 36.9807 13.9038 38.1266 14.4203C39.2726 14.9364 40.3284 15.5877 41.2954 16.3734C42.2619 17.1592 43.092 18.0835 43.786 19.1457C44.4794 20.2086 45.0211 21.4056 45.4112 22.7375C45.8007 24.0699 45.9959 25.5362 45.9959 27.1376C45.9959 28.784 45.7772 30.2692 45.3412 31.5938C44.9043 32.9184 44.3123 34.0486 43.5638 34.9837C42.8155 35.919 41.9464 36.6414 40.9565 37.15C39.9665 37.6589 38.9182 37.9131 37.8112 37.9131C37.0005 37.9131 36.3222 37.7897 35.7767 37.5427C35.2306 37.2956 34.8059 36.9479 34.5024 36.4988C34.1982 36.05 34.0071 35.5109 33.9293 34.8826C33.8511 34.254 33.8828 33.427 33.992 32.6636C33.197 34.3847 32.1945 35.7769 31.0178 36.5772C29.8405 37.378 28.5505 37.7783 27.1475 37.7783C26.3211 37.7783 25.6118 37.6401 25.0195 37.3629C24.4269 37.0861 23.9319 36.7117 23.5346 36.2403C23.1369 35.7691 22.8447 35.2155 22.6576 34.5793C22.4706 33.9435 22.377 33.2588 22.377 32.5254C22.377 31.6873 22.49 30.838 22.7163 29.9773C22.9423 29.1169 23.2734 28.2937 23.71 27.508C24.1463 26.7222 24.6843 25.9853 25.3236 25.2969C25.9627 24.6084 26.6877 24.0138 27.4984 23.5122C28.3088 23.0108 29.2055 22.6143 30.1876 22.3224C31.1697 22.0304 32.2297 21.8846 33.3681 21.8846C34.0074 21.8846 34.6581 21.9407 35.3206 22.0531C35.9832 22.1652 36.5485 22.3337 37.0159 22.5582L33.992 32.6639" stroke="#FCFDFF" stroke-width="2" stroke-miterlimit="1" stroke-linecap="round" stroke-linejoin="round"/>
</svg>
