<svg width="61" height="61" viewBox="0 0 61 61" fill="none" xmlns="http://www.w3.org/2000/svg">
<path d="M30.0476 59.0952C46.0902 59.0952 59.0952 46.0902 59.0952 30.0476C59.0952 14.0051 46.0902 1 30.0476 1C14.0051 1 1 14.0051 1 30.0476C1 46.0902 14.0051 59.0952 30.0476 59.0952Z" stroke="#FCFDFF" stroke-width="2" stroke-miterlimit="1" stroke-linecap="round" stroke-linejoin="round"/>
<path d="M35.9434 50.4297C35.9434 49.6986 35.9692 45.6482 35.9692 42.6781C35.9692 40.6073 35.2599 39.2563 34.4637 38.5673C39.4067 38.0177 44.5998 36.1403 44.5998 27.6143C44.5998 25.1905 43.7386 23.2104 42.3152 21.656C42.5459 21.0969 43.3058 18.839 42.0977 15.7814C42.0977 15.7814 40.2363 15.1848 35.9991 18.057C34.2252 17.565 32.0341 17.3186 30.1475 17.3102C28.2609 17.3186 26.0715 17.565 24.3008 18.057C20.0587 15.1848 18.1947 15.7814 18.1947 15.7814C16.9895 18.8393 17.7491 21.0969 17.9797 21.656C16.5596 23.2106 15.6925 25.1908 15.6925 27.6143C15.6925 36.12 20.8758 38.0235 25.8063 38.585C25.1716 39.1392 24.8867 43.173 24.6874 44.608C23.4206 45.175 20.2074 46.1562 18.2275 42.7626C18.2275 42.7626 17.0537 40.6317 14.8246 40.4748" stroke="#FCFDFF" stroke-width="2" stroke-miterlimit="1" stroke-linecap="round" stroke-linejoin="round"/>
</svg>
