<svg width="63" height="63" viewBox="0 0 63 63" fill="none" xmlns="http://www.w3.org/2000/svg">
<path d="M2.02665 23.6821C-2.4896 40.6662 8.39145 57.8593 24.9141 61.3575C41.0462 64.7731 57.1069 54.18 61.0713 38.8415C65.0905 23.292 55.7119 6.47809 39.7394 2.20803C14.7338 -4.32229 3.54776 17.6994 3.54658 18.8058" stroke="#FFFCFC" stroke-width="2" stroke-miterlimit="10" stroke-linecap="round" stroke-linejoin="round"/>
<path d="M21.2178 47.8555C21.0838 39.4284 21.5817 23.263 20.8661 22.4664C20.1505 21.6698 14.5231 19.2947 13.4675 17.474C12.4114 15.6533 12.7191 12.0048 16.4912 12C20.2633 11.9952 20.7403 15.4692 19.7583 17.7286C18.776 19.988 13.2152 21.6561 12.5811 22.5745C11.947 23.4928 11.6772 49.9084 12.5811 50.5565C13.4849 51.2046 24.8332 51.1506 25.8371 50.3403C26.8414 49.5301 24.5816 23.3307 25.8371 22.6822C27.0926 22.0336 32.3144 21.926 32.9675 22.2502C33.6202 22.5745 33.2187 25.3295 33.6704 25.5993C34.1221 25.8695 37.4551 21.1249 42.7086 21.8179C46.6008 22.3311 50.0901 25.8695 50.6423 29.3807C51.1945 32.8919 50.9768 43.2098 50.8433 50.1242C48.1652 50.2322 45.4871 50.3944 42.8094 50.5025C42.7089 44.6682 43.2113 37.0517 42.508 33.0541C41.8051 29.0565 34.1995 29.1113 34.2732 33.0541C34.3469 36.9968 34.8757 50.5025 33.2689 50.4484" stroke="#FFFCFC" stroke-width="2" stroke-miterlimit="10" stroke-linecap="round" stroke-linejoin="round"/>
</svg>
