<svg width="63" height="63" viewBox="0 0 63 63" fill="none" xmlns="http://www.w3.org/2000/svg">
<path d="M31.5 62C48.3447 62 62 48.3447 62 31.5C62 14.6553 48.3447 1 31.5 1C14.6553 1 1 14.6553 1 31.5C1 48.3447 14.6553 62 31.5 62Z" stroke="#FDFEFF" stroke-width="2" stroke-miterlimit="1" stroke-linecap="round"/>
<path d="M52.0759 21.2017C50.6848 21.8181 49.1921 22.2362 47.6235 22.4229C49.2251 21.4637 50.4533 19.9426 51.0322 18.1334C49.5346 19.0212 47.8739 19.6663 46.1074 20.0158C44.6925 18.5088 42.6779 17.5664 40.4481 17.5664C36.1656 17.5664 32.6938 21.0385 32.6938 25.3185C32.6938 25.9258 32.7624 26.5184 32.8945 27.0854C26.451 26.7618 20.7375 23.6746 16.9134 18.9837C16.2448 20.1293 15.8645 21.4615 15.8645 22.881C15.8645 25.5714 17.2342 27.9452 19.3128 29.3342C18.0422 29.2939 16.8472 28.9444 15.8004 28.3634C15.8004 28.3963 15.8004 28.4271 15.8004 28.4604C15.8004 32.2158 18.4744 35.3503 22.0197 36.0637C21.37 36.2409 20.6853 36.3355 19.9765 36.3355C19.4757 36.3355 18.9916 36.2857 18.5168 36.1961C19.504 39.2763 22.3668 41.5177 25.7587 41.5815C23.1061 43.66 19.7615 44.9002 16.1289 44.9002C15.503 44.9002 14.8866 44.8623 14.2794 44.7916C17.7112 46.99 21.7854 48.275 26.1649 48.275C40.4264 48.275 48.2259 36.4602 48.2259 26.214C48.2259 25.8785 48.2189 25.543 48.2024 25.21C49.7207 24.1214 51.0365 22.7559 52.0759 21.2017Z" stroke="#808184" stroke-width="2" stroke-miterlimit="1" stroke-linecap="round" stroke-linejoin="round"/>
<path d="M52.0759 21.2017C50.6848 21.8181 49.1921 22.2362 47.6235 22.4229C49.2251 21.4637 50.4533 19.9426 51.0322 18.1334C49.5346 19.0212 47.8739 19.6663 46.1074 20.0158C44.6925 18.5088 42.6779 17.5664 40.4481 17.5664C36.1656 17.5664 32.6938 21.0385 32.6938 25.3185C32.6938 25.9258 32.7624 26.5184 32.8945 27.0854C26.451 26.7618 20.7375 23.6746 16.9134 18.9837C16.2448 20.1293 15.8645 21.4615 15.8645 22.881C15.8645 25.5714 17.2342 27.9452 19.3128 29.3342C18.0422 29.2939 16.8472 28.9444 15.8004 28.3634C15.8004 28.3963 15.8004 28.4271 15.8004 28.4604C15.8004 32.2158 18.4744 35.3503 22.0197 36.0637C21.37 36.2409 20.6853 36.3355 19.9765 36.3355C19.4757 36.3355 18.9916 36.2857 18.5168 36.1961C19.504 39.2763 22.3668 41.5177 25.7587 41.5815C23.1061 43.66 19.7615 44.9002 16.1289 44.9002C15.503 44.9002 14.8866 44.8623 14.2794 44.7916C17.7112 46.99 21.7854 48.275 26.1649 48.275C40.4264 48.275 48.2259 36.4602 48.2259 26.214C48.2259 25.8785 48.2189 25.543 48.2024 25.21C49.7207 24.1214 51.0365 22.7559 52.0759 21.2017Z" stroke="#FDFEFF" stroke-width="2" stroke-miterlimit="1" stroke-linecap="round" stroke-linejoin="round"/>
</svg>
